<mxfile host="app.diagrams.net" modified="2023-10-16T20:38:31.926Z" agent="Mozilla/5.0 (Windows NT 10.0; Win64; x64) AppleWebKit/537.36 (KHTML, like Gecko) Chrome/118.0.0.0 Safari/537.36" etag="yxAiILT52gE6m7fYcwev" version="22.0.4" type="device">
  <diagram name="Página-1" id="-X11c9aHxKl_7VHZbHps">
    <mxGraphModel dx="2481" dy="1093" grid="1" gridSize="10" guides="1" tooltips="1" connect="1" arrows="1" fold="1" page="1" pageScale="1" pageWidth="827" pageHeight="1169" math="0" shadow="0">
      <root>
        <mxCell id="0" />
        <mxCell id="1" parent="0" />
        <mxCell id="nKFQiTVfHHNMh1_5JLaG-30" value="" style="rounded=0;whiteSpace=wrap;html=1;" parent="1" vertex="1">
          <mxGeometry x="70" y="710" width="350" height="250" as="geometry" />
        </mxCell>
        <mxCell id="nKFQiTVfHHNMh1_5JLaG-33" value="" style="group" parent="1" vertex="1" connectable="0">
          <mxGeometry x="70" y="150" width="320" height="350" as="geometry" />
        </mxCell>
        <mxCell id="nKFQiTVfHHNMh1_5JLaG-31" value="&lt;h1&gt;Tipo de cliente&lt;/h1&gt;&lt;p&gt;Los clientes del banco son de dos tipos : personal o empresarial&lt;/p&gt;" style="text;html=1;strokeColor=none;fillColor=none;spacing=5;spacingTop=-20;whiteSpace=wrap;overflow=hidden;rounded=0;" parent="nKFQiTVfHHNMh1_5JLaG-33" vertex="1">
          <mxGeometry width="320" height="90" as="geometry" />
        </mxCell>
        <mxCell id="nKFQiTVfHHNMh1_5JLaG-32" value="" style="group" parent="nKFQiTVfHHNMh1_5JLaG-33" vertex="1" connectable="0">
          <mxGeometry y="90" width="320" height="260" as="geometry" />
        </mxCell>
        <mxCell id="nKFQiTVfHHNMh1_5JLaG-28" value="" style="rounded=0;whiteSpace=wrap;html=1;" parent="nKFQiTVfHHNMh1_5JLaG-32" vertex="1">
          <mxGeometry width="320" height="260" as="geometry" />
        </mxCell>
        <mxCell id="nKFQiTVfHHNMh1_5JLaG-6" value="Cliente" style="shape=umlActor;verticalLabelPosition=bottom;verticalAlign=top;html=1;outlineConnect=0;" parent="nKFQiTVfHHNMh1_5JLaG-32" vertex="1">
          <mxGeometry x="140" y="20" width="30" height="60" as="geometry" />
        </mxCell>
        <mxCell id="nKFQiTVfHHNMh1_5JLaG-12" style="edgeStyle=orthogonalEdgeStyle;rounded=0;orthogonalLoop=1;jettySize=auto;html=1;" parent="nKFQiTVfHHNMh1_5JLaG-32" source="nKFQiTVfHHNMh1_5JLaG-8" target="nKFQiTVfHHNMh1_5JLaG-6" edge="1">
          <mxGeometry relative="1" as="geometry" />
        </mxCell>
        <mxCell id="nKFQiTVfHHNMh1_5JLaG-8" value="Personal" style="shape=umlActor;verticalLabelPosition=bottom;verticalAlign=top;html=1;outlineConnect=0;" parent="nKFQiTVfHHNMh1_5JLaG-32" vertex="1">
          <mxGeometry x="70" y="140" width="30" height="60" as="geometry" />
        </mxCell>
        <mxCell id="nKFQiTVfHHNMh1_5JLaG-13" style="edgeStyle=orthogonalEdgeStyle;rounded=0;orthogonalLoop=1;jettySize=auto;html=1;exitX=0.5;exitY=0.5;exitDx=0;exitDy=0;exitPerimeter=0;" parent="nKFQiTVfHHNMh1_5JLaG-32" source="nKFQiTVfHHNMh1_5JLaG-9" target="nKFQiTVfHHNMh1_5JLaG-6" edge="1">
          <mxGeometry relative="1" as="geometry" />
        </mxCell>
        <mxCell id="nKFQiTVfHHNMh1_5JLaG-9" value="Empresarial" style="shape=umlActor;verticalLabelPosition=bottom;verticalAlign=top;html=1;outlineConnect=0;" parent="nKFQiTVfHHNMh1_5JLaG-32" vertex="1">
          <mxGeometry x="210" y="140" width="30" height="60" as="geometry" />
        </mxCell>
        <mxCell id="nKFQiTVfHHNMh1_5JLaG-34" value="&lt;h1&gt;Tipos de Productos&lt;/h1&gt;El&lt;br/&gt;sistema debe manejar la información de los siguientes productos que ofrece el&lt;br/&gt;banco" style="text;html=1;strokeColor=none;fillColor=none;spacing=5;spacingTop=-20;whiteSpace=wrap;overflow=hidden;rounded=0;" parent="1" vertex="1">
          <mxGeometry x="70" y="580" width="320" height="120" as="geometry" />
        </mxCell>
        <mxCell id="nKFQiTVfHHNMh1_5JLaG-35" value="" style="group" parent="1" vertex="1" connectable="0">
          <mxGeometry x="80" y="720" width="310" height="230" as="geometry" />
        </mxCell>
        <mxCell id="nKFQiTVfHHNMh1_5JLaG-14" value="Pasivos(Cuenta bancaria)" style="ellipse;shape=doubleEllipse;whiteSpace=wrap;html=1;" parent="nKFQiTVfHHNMh1_5JLaG-35" vertex="1">
          <mxGeometry y="80" width="100" height="60" as="geometry" />
        </mxCell>
        <mxCell id="nKFQiTVfHHNMh1_5JLaG-15" value="Ahorros" style="ellipse;shape=doubleEllipse;whiteSpace=wrap;html=1;" parent="nKFQiTVfHHNMh1_5JLaG-35" vertex="1">
          <mxGeometry x="210" width="100" height="60" as="geometry" />
        </mxCell>
        <mxCell id="nKFQiTVfHHNMh1_5JLaG-18" style="edgeStyle=orthogonalEdgeStyle;rounded=0;orthogonalLoop=1;jettySize=auto;html=1;entryX=0;entryY=0.5;entryDx=0;entryDy=0;" parent="nKFQiTVfHHNMh1_5JLaG-35" source="nKFQiTVfHHNMh1_5JLaG-14" target="nKFQiTVfHHNMh1_5JLaG-15" edge="1">
          <mxGeometry relative="1" as="geometry">
            <Array as="points">
              <mxPoint x="160" y="110" />
              <mxPoint x="160" y="30" />
            </Array>
          </mxGeometry>
        </mxCell>
        <mxCell id="nKFQiTVfHHNMh1_5JLaG-16" value="Cuenta Corriente" style="ellipse;shape=doubleEllipse;whiteSpace=wrap;html=1;" parent="nKFQiTVfHHNMh1_5JLaG-35" vertex="1">
          <mxGeometry x="210" y="80" width="100" height="60" as="geometry" />
        </mxCell>
        <mxCell id="nKFQiTVfHHNMh1_5JLaG-19" style="edgeStyle=orthogonalEdgeStyle;rounded=0;orthogonalLoop=1;jettySize=auto;html=1;" parent="nKFQiTVfHHNMh1_5JLaG-35" source="nKFQiTVfHHNMh1_5JLaG-14" target="nKFQiTVfHHNMh1_5JLaG-16" edge="1">
          <mxGeometry relative="1" as="geometry" />
        </mxCell>
        <mxCell id="nKFQiTVfHHNMh1_5JLaG-17" value="Plazo fijo" style="ellipse;shape=doubleEllipse;whiteSpace=wrap;html=1;" parent="nKFQiTVfHHNMh1_5JLaG-35" vertex="1">
          <mxGeometry x="210" y="170" width="100" height="60" as="geometry" />
        </mxCell>
        <mxCell id="nKFQiTVfHHNMh1_5JLaG-20" style="edgeStyle=orthogonalEdgeStyle;rounded=0;orthogonalLoop=1;jettySize=auto;html=1;entryX=0;entryY=1;entryDx=0;entryDy=0;" parent="nKFQiTVfHHNMh1_5JLaG-35" source="nKFQiTVfHHNMh1_5JLaG-14" target="nKFQiTVfHHNMh1_5JLaG-17" edge="1">
          <mxGeometry relative="1" as="geometry">
            <Array as="points">
              <mxPoint x="160" y="110" />
              <mxPoint x="160" y="221" />
            </Array>
          </mxGeometry>
        </mxCell>
        <mxCell id="nKFQiTVfHHNMh1_5JLaG-36" value="" style="rounded=0;whiteSpace=wrap;html=1;" parent="1" vertex="1">
          <mxGeometry x="70" y="980" width="350" height="250" as="geometry" />
        </mxCell>
        <mxCell id="nKFQiTVfHHNMh1_5JLaG-38" value="" style="group" parent="1" vertex="1" connectable="0">
          <mxGeometry x="90" y="1010" width="290" height="170" as="geometry" />
        </mxCell>
        <mxCell id="nKFQiTVfHHNMh1_5JLaG-24" value="Activos(credito)" style="ellipse;shape=doubleEllipse;whiteSpace=wrap;html=1;" parent="nKFQiTVfHHNMh1_5JLaG-38" vertex="1">
          <mxGeometry y="60" width="100" height="60" as="geometry" />
        </mxCell>
        <mxCell id="nKFQiTVfHHNMh1_5JLaG-25" value="Personal" style="ellipse;shape=doubleEllipse;whiteSpace=wrap;html=1;" parent="nKFQiTVfHHNMh1_5JLaG-38" vertex="1">
          <mxGeometry x="190" width="100" height="60" as="geometry" />
        </mxCell>
        <mxCell id="nKFQiTVfHHNMh1_5JLaG-37" style="edgeStyle=orthogonalEdgeStyle;rounded=0;orthogonalLoop=1;jettySize=auto;html=1;entryX=-0.01;entryY=0.4;entryDx=0;entryDy=0;entryPerimeter=0;" parent="nKFQiTVfHHNMh1_5JLaG-38" source="nKFQiTVfHHNMh1_5JLaG-24" target="nKFQiTVfHHNMh1_5JLaG-25" edge="1">
          <mxGeometry relative="1" as="geometry">
            <Array as="points">
              <mxPoint x="150" y="90" />
              <mxPoint x="150" y="24" />
            </Array>
          </mxGeometry>
        </mxCell>
        <mxCell id="nKFQiTVfHHNMh1_5JLaG-26" value="Empresarial" style="ellipse;shape=doubleEllipse;whiteSpace=wrap;html=1;" parent="nKFQiTVfHHNMh1_5JLaG-38" vertex="1">
          <mxGeometry x="190" y="110" width="100" height="60" as="geometry" />
        </mxCell>
        <mxCell id="nKFQiTVfHHNMh1_5JLaG-22" style="edgeStyle=orthogonalEdgeStyle;rounded=0;orthogonalLoop=1;jettySize=auto;html=1;entryX=0;entryY=0.5;entryDx=0;entryDy=0;" parent="nKFQiTVfHHNMh1_5JLaG-38" source="nKFQiTVfHHNMh1_5JLaG-24" target="nKFQiTVfHHNMh1_5JLaG-26" edge="1">
          <mxGeometry relative="1" as="geometry">
            <mxPoint x="71" y="110" as="sourcePoint" />
            <mxPoint x="231" y="200" as="targetPoint" />
            <Array as="points">
              <mxPoint x="150" y="90" />
              <mxPoint x="150" y="140" />
            </Array>
          </mxGeometry>
        </mxCell>
        <mxCell id="RCFIxVPjN4FZySn3sPfs-48" value="" style="group" parent="1" vertex="1" connectable="0">
          <mxGeometry x="460" y="350" width="750" height="672" as="geometry" />
        </mxCell>
        <mxCell id="RCFIxVPjN4FZySn3sPfs-36" value="" style="rounded=0;whiteSpace=wrap;html=1;" parent="RCFIxVPjN4FZySn3sPfs-48" vertex="1">
          <mxGeometry width="750" height="672" as="geometry" />
        </mxCell>
        <mxCell id="RCFIxVPjN4FZySn3sPfs-1" value="credit-card-service-v1" style="image;aspect=fixed;html=1;points=[];align=center;fontSize=12;image=img/lib/azure2/compute/Cloud_Services_Classic.svg;" parent="RCFIxVPjN4FZySn3sPfs-48" vertex="1">
          <mxGeometry x="48" y="399" width="72" height="52" as="geometry" />
        </mxCell>
        <mxCell id="RCFIxVPjN4FZySn3sPfs-2" value="customer-management-v1" style="image;aspect=fixed;html=1;points=[];align=center;fontSize=12;image=img/lib/azure2/compute/Cloud_Services_Classic.svg;" parent="RCFIxVPjN4FZySn3sPfs-48" vertex="1">
          <mxGeometry x="448" y="237" width="72" height="52" as="geometry" />
        </mxCell>
        <mxCell id="RCFIxVPjN4FZySn3sPfs-30" style="edgeStyle=orthogonalEdgeStyle;rounded=0;orthogonalLoop=1;jettySize=auto;html=1;dashed=1;dashPattern=8 8;startArrow=classic;startFill=1;" parent="RCFIxVPjN4FZySn3sPfs-48" source="RCFIxVPjN4FZySn3sPfs-3" target="RCFIxVPjN4FZySn3sPfs-2" edge="1">
          <mxGeometry relative="1" as="geometry" />
        </mxCell>
        <mxCell id="RCFIxVPjN4FZySn3sPfs-3" value="account-management-v1" style="image;aspect=fixed;html=1;points=[];align=center;fontSize=12;image=img/lib/azure2/compute/Cloud_Services_Classic.svg;" parent="RCFIxVPjN4FZySn3sPfs-48" vertex="1">
          <mxGeometry x="630" y="237" width="72" height="52" as="geometry" />
        </mxCell>
        <mxCell id="RCFIxVPjN4FZySn3sPfs-8" value="transaction-management-v1" style="image;aspect=fixed;html=1;points=[];align=center;fontSize=12;image=img/lib/azure2/compute/Cloud_Services_Classic.svg;" parent="RCFIxVPjN4FZySn3sPfs-48" vertex="1">
          <mxGeometry x="248" y="395" width="72" height="52" as="geometry" />
        </mxCell>
        <mxCell id="RCFIxVPjN4FZySn3sPfs-31" style="rounded=0;orthogonalLoop=1;jettySize=auto;html=1;elbow=vertical;entryX=0.514;entryY=0.981;entryDx=0;entryDy=0;entryPerimeter=0;exitX=0.639;exitY=-0.019;exitDx=0;exitDy=0;exitPerimeter=0;dashed=1;dashPattern=8 8;startArrow=classic;startFill=1;" parent="RCFIxVPjN4FZySn3sPfs-48" source="RCFIxVPjN4FZySn3sPfs-9" target="RCFIxVPjN4FZySn3sPfs-2" edge="1">
          <mxGeometry relative="1" as="geometry" />
        </mxCell>
        <mxCell id="RCFIxVPjN4FZySn3sPfs-9" value="credit-service-v1" style="image;aspect=fixed;html=1;points=[];align=center;fontSize=12;image=img/lib/azure2/compute/Cloud_Services_Classic.svg;" parent="RCFIxVPjN4FZySn3sPfs-48" vertex="1">
          <mxGeometry x="438" y="395" width="72" height="52" as="geometry" />
        </mxCell>
        <mxCell id="RCFIxVPjN4FZySn3sPfs-33" style="edgeStyle=orthogonalEdgeStyle;rounded=0;orthogonalLoop=1;jettySize=auto;html=1;dashed=1;dashPattern=8 8;startArrow=classic;startFill=1;" parent="RCFIxVPjN4FZySn3sPfs-48" source="RCFIxVPjN4FZySn3sPfs-8" target="RCFIxVPjN4FZySn3sPfs-9" edge="1">
          <mxGeometry relative="1" as="geometry" />
        </mxCell>
        <mxCell id="RCFIxVPjN4FZySn3sPfs-11" value="creditcards" style="image;aspect=fixed;html=1;points=[];align=center;fontSize=12;image=img/lib/azure2/databases/Azure_Cosmos_DB.svg;" parent="RCFIxVPjN4FZySn3sPfs-48" vertex="1">
          <mxGeometry x="52" y="500" width="64" height="64" as="geometry" />
        </mxCell>
        <mxCell id="RCFIxVPjN4FZySn3sPfs-12" style="edgeStyle=orthogonalEdgeStyle;rounded=0;orthogonalLoop=1;jettySize=auto;html=1;dashed=1;dashPattern=8 8;startArrow=classic;startFill=1;" parent="RCFIxVPjN4FZySn3sPfs-48" source="RCFIxVPjN4FZySn3sPfs-1" target="RCFIxVPjN4FZySn3sPfs-11" edge="1">
          <mxGeometry relative="1" as="geometry" />
        </mxCell>
        <mxCell id="RCFIxVPjN4FZySn3sPfs-13" value="transactions" style="image;aspect=fixed;html=1;points=[];align=center;fontSize=12;image=img/lib/azure2/databases/Azure_Cosmos_DB.svg;" parent="RCFIxVPjN4FZySn3sPfs-48" vertex="1">
          <mxGeometry x="252" y="519" width="64" height="64" as="geometry" />
        </mxCell>
        <mxCell id="RCFIxVPjN4FZySn3sPfs-14" style="edgeStyle=orthogonalEdgeStyle;rounded=0;orthogonalLoop=1;jettySize=auto;html=1;dashed=1;startArrow=classic;startFill=1;" parent="RCFIxVPjN4FZySn3sPfs-48" source="RCFIxVPjN4FZySn3sPfs-8" target="RCFIxVPjN4FZySn3sPfs-13" edge="1">
          <mxGeometry relative="1" as="geometry" />
        </mxCell>
        <mxCell id="RCFIxVPjN4FZySn3sPfs-15" value="accounts" style="image;aspect=fixed;html=1;points=[];align=center;fontSize=12;image=img/lib/azure2/databases/Azure_Cosmos_DB.svg;" parent="RCFIxVPjN4FZySn3sPfs-48" vertex="1">
          <mxGeometry x="634" y="379" width="64" height="64" as="geometry" />
        </mxCell>
        <mxCell id="RCFIxVPjN4FZySn3sPfs-16" style="rounded=0;orthogonalLoop=1;jettySize=auto;html=1;dashed=1;dashPattern=8 8;startArrow=classic;startFill=1;" parent="RCFIxVPjN4FZySn3sPfs-48" source="RCFIxVPjN4FZySn3sPfs-3" target="RCFIxVPjN4FZySn3sPfs-15" edge="1">
          <mxGeometry relative="1" as="geometry" />
        </mxCell>
        <mxCell id="RCFIxVPjN4FZySn3sPfs-17" value="credits" style="image;aspect=fixed;html=1;points=[];align=center;fontSize=12;image=img/lib/azure2/databases/Azure_Cosmos_DB.svg;" parent="RCFIxVPjN4FZySn3sPfs-48" vertex="1">
          <mxGeometry x="442" y="515" width="64" height="64" as="geometry" />
        </mxCell>
        <mxCell id="RCFIxVPjN4FZySn3sPfs-19" value="clients" style="image;aspect=fixed;html=1;points=[];align=center;fontSize=12;image=img/lib/azure2/databases/Azure_Cosmos_DB.svg;" parent="RCFIxVPjN4FZySn3sPfs-48" vertex="1">
          <mxGeometry x="528" y="357" width="64" height="64" as="geometry" />
        </mxCell>
        <mxCell id="RCFIxVPjN4FZySn3sPfs-18" style="edgeStyle=orthogonalEdgeStyle;rounded=0;orthogonalLoop=1;jettySize=auto;html=1;dashed=1;startArrow=classic;startFill=1;" parent="RCFIxVPjN4FZySn3sPfs-48" source="RCFIxVPjN4FZySn3sPfs-9" target="RCFIxVPjN4FZySn3sPfs-17" edge="1">
          <mxGeometry relative="1" as="geometry" />
        </mxCell>
        <mxCell id="RCFIxVPjN4FZySn3sPfs-32" style="edgeStyle=orthogonalEdgeStyle;rounded=0;orthogonalLoop=1;jettySize=auto;html=1;entryX=0;entryY=0.654;entryDx=0;entryDy=0;entryPerimeter=0;dashed=1;strokeWidth=1;startArrow=classic;startFill=1;" parent="RCFIxVPjN4FZySn3sPfs-48" source="RCFIxVPjN4FZySn3sPfs-8" target="RCFIxVPjN4FZySn3sPfs-2" edge="1">
          <mxGeometry relative="1" as="geometry">
            <Array as="points">
              <mxPoint x="278" y="271" />
            </Array>
          </mxGeometry>
        </mxCell>
        <mxCell id="RCFIxVPjN4FZySn3sPfs-20" style="rounded=0;orthogonalLoop=1;jettySize=auto;html=1;startArrow=classicThin;startFill=1;" parent="RCFIxVPjN4FZySn3sPfs-48" source="RCFIxVPjN4FZySn3sPfs-2" target="RCFIxVPjN4FZySn3sPfs-19" edge="1">
          <mxGeometry relative="1" as="geometry" />
        </mxCell>
        <mxCell id="RCFIxVPjN4FZySn3sPfs-34" style="edgeStyle=orthogonalEdgeStyle;rounded=0;orthogonalLoop=1;jettySize=auto;html=1;entryX=0.972;entryY=0.423;entryDx=0;entryDy=0;entryPerimeter=0;dashed=1;strokeWidth=1;endArrow=classic;endFill=1;strokeColor=default;startArrow=classic;startFill=1;" parent="RCFIxVPjN4FZySn3sPfs-48" source="RCFIxVPjN4FZySn3sPfs-8" target="RCFIxVPjN4FZySn3sPfs-1" edge="1">
          <mxGeometry relative="1" as="geometry" />
        </mxCell>
        <mxCell id="RCFIxVPjN4FZySn3sPfs-35" value="eureka-server" style="image;aspect=fixed;html=1;points=[];align=center;fontSize=12;image=img/lib/azure2/compute/Cloud_Services_Classic.svg;" parent="RCFIxVPjN4FZySn3sPfs-48" vertex="1">
          <mxGeometry x="338" y="120" width="72" height="52" as="geometry" />
        </mxCell>
        <mxCell id="RCFIxVPjN4FZySn3sPfs-39" style="edgeStyle=orthogonalEdgeStyle;rounded=0;orthogonalLoop=1;jettySize=auto;html=1;fillColor=#f8cecc;strokeColor=#b85450;gradientColor=#ea6b66;strokeWidth=2;" parent="RCFIxVPjN4FZySn3sPfs-48" source="RCFIxVPjN4FZySn3sPfs-1" target="RCFIxVPjN4FZySn3sPfs-35" edge="1">
          <mxGeometry relative="1" as="geometry">
            <Array as="points">
              <mxPoint x="78" y="146" />
            </Array>
          </mxGeometry>
        </mxCell>
        <mxCell id="RCFIxVPjN4FZySn3sPfs-42" style="edgeStyle=orthogonalEdgeStyle;rounded=0;orthogonalLoop=1;jettySize=auto;html=1;fillColor=#f8cecc;gradientColor=#ea6b66;strokeColor=#b85450;strokeWidth=2;" parent="RCFIxVPjN4FZySn3sPfs-48" source="RCFIxVPjN4FZySn3sPfs-2" target="RCFIxVPjN4FZySn3sPfs-35" edge="1">
          <mxGeometry relative="1" as="geometry">
            <Array as="points">
              <mxPoint x="484" y="146" />
            </Array>
          </mxGeometry>
        </mxCell>
        <mxCell id="RCFIxVPjN4FZySn3sPfs-43" style="edgeStyle=orthogonalEdgeStyle;rounded=0;orthogonalLoop=1;jettySize=auto;html=1;fillColor=#f8cecc;gradientColor=#ea6b66;strokeColor=#b85450;strokeWidth=2;" parent="RCFIxVPjN4FZySn3sPfs-48" source="RCFIxVPjN4FZySn3sPfs-3" target="RCFIxVPjN4FZySn3sPfs-35" edge="1">
          <mxGeometry relative="1" as="geometry">
            <Array as="points">
              <mxPoint x="666" y="146" />
            </Array>
          </mxGeometry>
        </mxCell>
        <mxCell id="RCFIxVPjN4FZySn3sPfs-40" style="edgeStyle=orthogonalEdgeStyle;rounded=0;orthogonalLoop=1;jettySize=auto;html=1;exitX=0.625;exitY=0;exitDx=0;exitDy=0;exitPerimeter=0;fillColor=#f8cecc;gradientColor=#ea6b66;strokeColor=#b85450;strokeWidth=2;" parent="RCFIxVPjN4FZySn3sPfs-48" source="RCFIxVPjN4FZySn3sPfs-8" target="RCFIxVPjN4FZySn3sPfs-35" edge="1">
          <mxGeometry relative="1" as="geometry">
            <Array as="points">
              <mxPoint x="293" y="370" />
              <mxPoint x="338" y="370" />
            </Array>
          </mxGeometry>
        </mxCell>
        <mxCell id="RCFIxVPjN4FZySn3sPfs-41" style="edgeStyle=orthogonalEdgeStyle;rounded=0;orthogonalLoop=1;jettySize=auto;html=1;fillColor=#f8cecc;gradientColor=#ea6b66;strokeColor=#b85450;strokeWidth=2;" parent="RCFIxVPjN4FZySn3sPfs-48" source="RCFIxVPjN4FZySn3sPfs-9" target="RCFIxVPjN4FZySn3sPfs-35" edge="1">
          <mxGeometry relative="1" as="geometry">
            <Array as="points">
              <mxPoint x="474" y="369" />
              <mxPoint x="374" y="369" />
            </Array>
          </mxGeometry>
        </mxCell>
        <mxCell id="RCFIxVPjN4FZySn3sPfs-46" value="Api Gateway / Spring Gateway" style="image;aspect=fixed;html=1;points=[];align=center;fontSize=12;image=img/lib/azure2/networking/Application_Gateways.svg;" parent="RCFIxVPjN4FZySn3sPfs-48" vertex="1">
          <mxGeometry x="343" y="13" width="64" height="64" as="geometry" />
        </mxCell>
        <mxCell id="RCFIxVPjN4FZySn3sPfs-47" style="edgeStyle=orthogonalEdgeStyle;rounded=0;orthogonalLoop=1;jettySize=auto;html=1;" parent="RCFIxVPjN4FZySn3sPfs-48" source="RCFIxVPjN4FZySn3sPfs-35" target="RCFIxVPjN4FZySn3sPfs-46" edge="1">
          <mxGeometry relative="1" as="geometry" />
        </mxCell>
        <mxCell id="EY5daQs1NWzvpDhGL9K3-1" value="&lt;h1&gt;&lt;span style=&quot;background-color: initial;&quot;&gt;Diagrama de Arquitectura Proyecto #1&lt;/span&gt;&lt;br&gt;&lt;/h1&gt;" style="text;html=1;strokeColor=none;fillColor=none;spacing=5;spacingTop=-20;whiteSpace=wrap;overflow=hidden;rounded=0;" vertex="1" parent="1">
          <mxGeometry x="540" y="20" width="782" height="120" as="geometry" />
        </mxCell>
      </root>
    </mxGraphModel>
  </diagram>
</mxfile>
